<?xml version="1.0" ?><svg data-name="Layer 1" height="88" id="Layer_1" viewBox="0 0 88 88" width="88" xmlns="http://www.w3.org/2000/svg"><title/><path d="M54.74,12.51l4.6,4.25L64,18.5l12,23v30a1,1,0,0,1-1,1H67a1,1,0,0,1-1-1V46.35L64,43V74.49a1,1,0,0,1-1,1H25a1,1,0,0,1-1-1V43l-2,3.38V71.5a1,1,0,0,1-1,1H13a1,1,0,0,1-1-1v-30l12-23,5.75-1.81,4.35-4.18ZM26,73.49H43v-46a1,1,0,0,1,2,0v46H62v-34h2.27L68,45.81v20.8l6,0V42L62.58,20.1l-3.49-1.3-9.5,8.81a1,1,0,0,1-1.36,0l-4.36-4.11L40.23,27a1,1,0,0,1-1.4,0l-8.57-8.38-4.87,1.53L14,42V66.5h6V45.81L24,39V34.5a1,1,0,0,1,2,0Zm-6-5H14v2h6Zm54,0H68v2h6Zm-25-8a2,2,0,1,1-2,2A2,2,0,0,1,49,60.5Zm0-9a2,2,0,1,1-2,2A2,2,0,0,1,49,51.5Zm0-9a2,2,0,1,1-2,2A2,2,0,0,1,49,42.5Zm-10-8V38a4.5,4.5,0,0,1-9,0V34.5a1,1,0,0,1,1-1h7A1,1,0,0,1,39,34.5Zm-2,1H32V38a2.5,2.5,0,0,0,5,0Zm25,2v-2a1,1,0,0,1,2,0v2Zm-13-4a2,2,0,1,1-2,2A2,2,0,0,1,49,33.5Zm5.67-18.28L46.06,22.8l2.87,2.7,8.35-7.75Zm-20.48,0-2.26,2.24,7.61,7.43,2.77-2.69Zm18.27-.72h-16l8.1,7Z"/></svg>