<?xml version="1.0" ?><svg data-name="Layer 1" height="88" id="Layer_1" viewBox="0 0 88 88" width="88" xmlns="http://www.w3.org/2000/svg"><title/><path d="M33.32,54.87c.1-.13,3.66-6.35,3.7-6.52a1,1,0,0,0-.7-.94h0a.94.94,0,0,0-1.12.41c-.17.28-3.2,5.49-3.49,6a.93.93,0,0,0,.34,1.23A1,1,0,0,0,33.32,54.87Z"/><path d="M52.94,47.31a1,1,0,0,0-.81,1.5q3.27,5.64,3.54,6a.9.9,0,0,0,1.26.19.92.92,0,0,0,.35-1.18c-.16-.33-2.51-4.36-3.5-6.06A.86.86,0,0,0,52.94,47.31Z"/><path d="M61.62,36.45v1.91h1.92v-2a1,1,0,0,0-1.92.06Z"/><path d="M71.79,62.65l-.43-.09c0-.08-1-25.73-2.41-40.24l-.57-2a1.79,1.79,0,0,0-1.21-.84Q57.17,16.8,54,13.75a9.41,9.41,0,0,1-.83-.71h0a1,1,0,0,0-1-.29A33.51,33.51,0,0,1,44,14.1a33,33,0,0,1-8.36-1.29,1.05,1.05,0,0,0-1.08.34,5.87,5.87,0,0,1-.72.69A9.24,9.24,0,0,1,30.49,16a47.84,47.84,0,0,1-8.32,3.29,3,3,0,0,0-1.47,1q-1.92,2.33-4.08,42.24c-.81.11-1.06.37-1.07,1.13,0,1.18,0,2.35,0,3.53,0,.79.22,1.06,1,1.24l-.19,5.84a.89.89,0,0,0,.92,1q10.95,0,11.09,0a.87.87,0,0,0,.79-.89c0-1.24,0-2.47,0-3.71,0-.2-.07-.27-.27-.27a11.63,11.63,0,0,1-1.32,0c-.3,0-.39.08-.38.38v2.57H18.06l.23-4.94h4.08V62.65H18.5q2.2-39.09,4-41.33a93.23,93.23,0,0,0,8.8-3.57,12.34,12.34,0,0,0,1.46-.8c0,.06-2.58,5.9-3.06,7a.44.44,0,0,0-.06.16.92.92,0,0,0,.64,1.13q1.47.48,6.85,2.13L35.2,32.3a1,1,0,0,0,.53,1.49c.84.49,10.8,6.23,10.88,6.53s-.92,8.88-2.76,26.17H26.34V36.61a1,1,0,0,0-2,0V67.37a.94.94,0,0,0,1,1l20.37,0v0H62.49a1,1,0,0,0,.92-.38,1.88,1.88,0,0,0,.22-.8c0-.31,0-.62,0-.93V64.46q0-23.22,0-24.08c0-.1-.1-.27-.16-.27h-1.8V66.47H45.91c.69-6.57,2.75-26.66,2.65-27.35L47.2,29.56a5,5,0,0,0-.84-1.95Q42,21.39,37.68,15.19a26.68,26.68,0,0,0,12.47,0q-.06.12-5.19,7.26l1.4,1.67,5.93-8.51L56,23.29l-6.44,1.79,1.91,6.18-2.44,1.17.32,1.86a.34.34,0,0,0,0,.14C51.12,33.6,52.32,33,53,32.62a1,1,0,0,0,.47-1.1c0-.13-.53-1.83-1.5-5.08l3.52-1c.76-.22,1.53-.41,2.27-.66a.88.88,0,0,0,.51-1.22c0-.09-1.12-2.34-3.26-6.76a57.66,57.66,0,0,0,11.28,4.48c.39,0,.58.36.58,1q.87,6,2.46,40.31H65.61v5.83l3.81,0v4.88H60.9V70.4l-2,0c0,1.75,0,3.06,0,3.91,0,.62.29.94.91.94s9.73,0,10.6,0a1,1,0,0,0,1-1c0-.08,0-5.84,0-5.85.83,0,1.11-.43,1.11-1.18V63.53A.9.9,0,0,0,71.79,62.65ZM20.44,64.53v.9c0,.29,0,.58,0,.86,0,.06-.1.19-.16.19H17.49v-2ZM45,29.11a.93.93,0,0,1,.15.39q.26,1.68,1.17,8.21l-9.12-5.3,2.49-6.23L32,23.75l3.59-8h0Zm25.5,35.43V66c0,.42-.07.48-.49.49H67.84c-.21,0-.27-.06-.27-.26V64.53Z"/></svg>